<svg width="32" height="32" viewBox="0 0 32 32" fill="none" xmlns="http://www.w3.org/2000/svg">
  <!-- Background circle with gradient -->
  <defs>
    <linearGradient id="bgGradient" x1="0%" y1="0%" x2="100%" y2="100%">
      <stop offset="0%" style="stop-color:#3B82F6;stop-opacity:1" />
      <stop offset="50%" style="stop-color:#8B5CF6;stop-opacity:1" />
      <stop offset="100%" style="stop-color:#EC4899;stop-opacity:1" />
    </linearGradient>
  </defs>
  
  <!-- Main background circle -->
  <circle cx="16" cy="16" r="15" fill="url(#bgGradient)" stroke="#1F2937" stroke-width="1"/>
  
  <!-- Game board -->
  <rect x="6" y="6" width="20" height="20" rx="3" fill="#FEF3C7" stroke="#92400E" stroke-width="1"/>
  
  <!-- Grid lines -->
  <g stroke="#D97706" stroke-width="0.5" opacity="0.6">
    <line x1="11" y1="6" x2="11" y2="26"/>
    <line x1="16" y1="6" x2="16" y2="26"/>
    <line x1="21" y1="6" x2="21" y2="26"/>
    <line x1="6" y1="11" x2="26" y2="11"/>
    <line x1="6" y1="16" x2="26" y2="16"/>
    <line x1="6" y1="21" x2="26" y2="21"/>
  </g>
  
  <!-- Dice -->
  <rect x="8" y="8" width="4" height="4" rx="1" fill="white" stroke="#374151" stroke-width="0.5"/>
  <circle cx="10" cy="10" r="0.5" fill="#374151"/>
  
  <!-- Game piece -->
  <circle cx="20" cy="10" r="2" fill="#10B981" stroke="#065F46" stroke-width="0.5"/>
  
  <!-- Clock -->
  <circle cx="10" cy="20" r="3" fill="white" stroke="#374151" stroke-width="0.5"/>
  <line x1="10" y1="20" x2="10" y2="17" stroke="#374151" stroke-width="0.5" stroke-linecap="round"/>
  <line x1="10" y1="20" x2="12" y2="20" stroke="#374151" stroke-width="0.5" stroke-linecap="round"/>
</svg>
